<mxfile host="app.diagrams.net" agent="Mozilla/5.0 (Windows NT 10.0; Win64; x64) AppleWebKit/537.36 (KHTML, like Gecko) Chrome/132.0.0.0 Safari/537.36 Edg/132.0.0.0" version="26.0.6">
  <diagram id="C5RBs43oDa-KdzZeNtuy" name="Page-1">
    <mxGraphModel dx="1414" dy="1952" grid="1" gridSize="10" guides="1" tooltips="1" connect="1" arrows="1" fold="1" page="1" pageScale="1" pageWidth="827" pageHeight="1169" math="0" shadow="0">
      <root>
        <mxCell id="WIyWlLk6GJQsqaUBKTNV-0" />
        <mxCell id="WIyWlLk6GJQsqaUBKTNV-1" parent="WIyWlLk6GJQsqaUBKTNV-0" />
        <mxCell id="Sv3MGCIASbDHCZXib714-21" value="" style="edgeStyle=orthogonalEdgeStyle;rounded=0;orthogonalLoop=1;jettySize=auto;html=1;" edge="1" parent="WIyWlLk6GJQsqaUBKTNV-1" source="Sv3MGCIASbDHCZXib714-0" target="Sv3MGCIASbDHCZXib714-2">
          <mxGeometry relative="1" as="geometry" />
        </mxCell>
        <mxCell id="Sv3MGCIASbDHCZXib714-0" value="&lt;div&gt;Функция 1&lt;/div&gt;Начало" style="strokeWidth=2;html=1;shape=mxgraph.flowchart.terminator;whiteSpace=wrap;" vertex="1" parent="WIyWlLk6GJQsqaUBKTNV-1">
          <mxGeometry x="200" y="-40" width="200" height="80" as="geometry" />
        </mxCell>
        <mxCell id="Sv3MGCIASbDHCZXib714-1" value="" style="edgeStyle=orthogonalEdgeStyle;rounded=0;orthogonalLoop=1;jettySize=auto;html=1;" edge="1" parent="WIyWlLk6GJQsqaUBKTNV-1" source="Sv3MGCIASbDHCZXib714-2" target="Sv3MGCIASbDHCZXib714-4">
          <mxGeometry relative="1" as="geometry" />
        </mxCell>
        <mxCell id="Sv3MGCIASbDHCZXib714-2" value="Открытие нового уровня с игровым полем" style="rounded=0;whiteSpace=wrap;html=1;" vertex="1" parent="WIyWlLk6GJQsqaUBKTNV-1">
          <mxGeometry x="200" y="80" width="200" height="80" as="geometry" />
        </mxCell>
        <mxCell id="Sv3MGCIASbDHCZXib714-30" value="" style="edgeStyle=orthogonalEdgeStyle;rounded=0;orthogonalLoop=1;jettySize=auto;html=1;" edge="1" parent="WIyWlLk6GJQsqaUBKTNV-1" source="Sv3MGCIASbDHCZXib714-4" target="Sv3MGCIASbDHCZXib714-6">
          <mxGeometry relative="1" as="geometry" />
        </mxCell>
        <mxCell id="Sv3MGCIASbDHCZXib714-4" value="Ход игрока" style="rounded=0;whiteSpace=wrap;html=1;" vertex="1" parent="WIyWlLk6GJQsqaUBKTNV-1">
          <mxGeometry x="200" y="200" width="200" height="80" as="geometry" />
        </mxCell>
        <mxCell id="Sv3MGCIASbDHCZXib714-5" value="" style="edgeStyle=orthogonalEdgeStyle;rounded=0;orthogonalLoop=1;jettySize=auto;html=1;" edge="1" parent="WIyWlLk6GJQsqaUBKTNV-1" source="Sv3MGCIASbDHCZXib714-6" target="Sv3MGCIASbDHCZXib714-11">
          <mxGeometry relative="1" as="geometry" />
        </mxCell>
        <mxCell id="Sv3MGCIASbDHCZXib714-6" value="Все диски на&amp;nbsp;&lt;div&gt;необходимом стержне?&lt;/div&gt;" style="rhombus;whiteSpace=wrap;html=1;" vertex="1" parent="WIyWlLk6GJQsqaUBKTNV-1">
          <mxGeometry x="200" y="320" width="200" height="80" as="geometry" />
        </mxCell>
        <mxCell id="Sv3MGCIASbDHCZXib714-9" value="" style="endArrow=none;html=1;rounded=0;" edge="1" parent="WIyWlLk6GJQsqaUBKTNV-1">
          <mxGeometry width="50" height="50" relative="1" as="geometry">
            <mxPoint x="160" y="359.93" as="sourcePoint" />
            <mxPoint x="200" y="359.63999999999993" as="targetPoint" />
          </mxGeometry>
        </mxCell>
        <mxCell id="Sv3MGCIASbDHCZXib714-10" value="" style="edgeStyle=orthogonalEdgeStyle;rounded=0;orthogonalLoop=1;jettySize=auto;html=1;" edge="1" parent="WIyWlLk6GJQsqaUBKTNV-1" source="Sv3MGCIASbDHCZXib714-11" target="Sv3MGCIASbDHCZXib714-19">
          <mxGeometry relative="1" as="geometry" />
        </mxCell>
        <mxCell id="Sv3MGCIASbDHCZXib714-11" value="Все уровни пройдены?" style="rhombus;whiteSpace=wrap;html=1;" vertex="1" parent="WIyWlLk6GJQsqaUBKTNV-1">
          <mxGeometry x="200" y="440" width="200" height="80" as="geometry" />
        </mxCell>
        <mxCell id="Sv3MGCIASbDHCZXib714-15" value="Нет" style="text;html=1;align=center;verticalAlign=middle;whiteSpace=wrap;rounded=0;" vertex="1" parent="WIyWlLk6GJQsqaUBKTNV-1">
          <mxGeometry x="160" y="330" width="60" height="30" as="geometry" />
        </mxCell>
        <mxCell id="Sv3MGCIASbDHCZXib714-16" value="Да" style="text;html=1;align=center;verticalAlign=middle;whiteSpace=wrap;rounded=0;" vertex="1" parent="WIyWlLk6GJQsqaUBKTNV-1">
          <mxGeometry x="260" y="610" width="60" height="10" as="geometry" />
        </mxCell>
        <mxCell id="Sv3MGCIASbDHCZXib714-17" value="Нет" style="text;html=1;align=center;verticalAlign=middle;whiteSpace=wrap;rounded=0;" vertex="1" parent="WIyWlLk6GJQsqaUBKTNV-1">
          <mxGeometry x="160" y="450" width="60" height="30" as="geometry" />
        </mxCell>
        <mxCell id="Sv3MGCIASbDHCZXib714-18" value="" style="edgeStyle=orthogonalEdgeStyle;rounded=0;orthogonalLoop=1;jettySize=auto;html=1;" edge="1" parent="WIyWlLk6GJQsqaUBKTNV-1" source="Sv3MGCIASbDHCZXib714-19" target="Sv3MGCIASbDHCZXib714-20">
          <mxGeometry relative="1" as="geometry" />
        </mxCell>
        <mxCell id="Sv3MGCIASbDHCZXib714-19" value="Вывод окна победителя" style="shape=parallelogram;perimeter=parallelogramPerimeter;whiteSpace=wrap;html=1;fixedSize=1;" vertex="1" parent="WIyWlLk6GJQsqaUBKTNV-1">
          <mxGeometry x="200" y="560" width="200" height="80" as="geometry" />
        </mxCell>
        <mxCell id="Sv3MGCIASbDHCZXib714-20" value="&lt;div&gt;Функция 1&lt;/div&gt;Конец" style="strokeWidth=2;html=1;shape=mxgraph.flowchart.terminator;whiteSpace=wrap;" vertex="1" parent="WIyWlLk6GJQsqaUBKTNV-1">
          <mxGeometry x="200" y="680" width="200" height="80" as="geometry" />
        </mxCell>
        <mxCell id="Sv3MGCIASbDHCZXib714-22" value="" style="endArrow=none;html=1;rounded=0;" edge="1" parent="WIyWlLk6GJQsqaUBKTNV-1">
          <mxGeometry width="50" height="50" relative="1" as="geometry">
            <mxPoint x="160" y="360" as="sourcePoint" />
            <mxPoint x="160" y="180" as="targetPoint" />
          </mxGeometry>
        </mxCell>
        <mxCell id="Sv3MGCIASbDHCZXib714-24" value="" style="endArrow=classic;html=1;rounded=0;" edge="1" parent="WIyWlLk6GJQsqaUBKTNV-1">
          <mxGeometry width="50" height="50" relative="1" as="geometry">
            <mxPoint x="160" y="180" as="sourcePoint" />
            <mxPoint x="300" y="180" as="targetPoint" />
          </mxGeometry>
        </mxCell>
        <mxCell id="Sv3MGCIASbDHCZXib714-25" value="" style="endArrow=none;html=1;rounded=0;exitX=0;exitY=0.5;exitDx=0;exitDy=0;" edge="1" parent="WIyWlLk6GJQsqaUBKTNV-1" source="Sv3MGCIASbDHCZXib714-11">
          <mxGeometry width="50" height="50" relative="1" as="geometry">
            <mxPoint x="160" y="420" as="sourcePoint" />
            <mxPoint x="120" y="480" as="targetPoint" />
          </mxGeometry>
        </mxCell>
        <mxCell id="Sv3MGCIASbDHCZXib714-26" value="" style="endArrow=none;html=1;rounded=0;" edge="1" parent="WIyWlLk6GJQsqaUBKTNV-1">
          <mxGeometry width="50" height="50" relative="1" as="geometry">
            <mxPoint x="120" y="480" as="sourcePoint" />
            <mxPoint x="120" y="60" as="targetPoint" />
          </mxGeometry>
        </mxCell>
        <mxCell id="Sv3MGCIASbDHCZXib714-27" value="" style="endArrow=classic;html=1;rounded=0;" edge="1" parent="WIyWlLk6GJQsqaUBKTNV-1">
          <mxGeometry width="50" height="50" relative="1" as="geometry">
            <mxPoint x="120" y="60" as="sourcePoint" />
            <mxPoint x="300" y="60" as="targetPoint" />
          </mxGeometry>
        </mxCell>
        <mxCell id="Sv3MGCIASbDHCZXib714-28" value="Да" style="text;html=1;align=center;verticalAlign=middle;whiteSpace=wrap;rounded=0;" vertex="1" parent="WIyWlLk6GJQsqaUBKTNV-1">
          <mxGeometry x="240" y="400" width="60" height="30" as="geometry" />
        </mxCell>
        <mxCell id="Sv3MGCIASbDHCZXib714-29" value="Да" style="text;html=1;align=center;verticalAlign=middle;whiteSpace=wrap;rounded=0;" vertex="1" parent="WIyWlLk6GJQsqaUBKTNV-1">
          <mxGeometry x="240" y="510" width="60" height="30" as="geometry" />
        </mxCell>
      </root>
    </mxGraphModel>
  </diagram>
</mxfile>
